<svg xmlns="http://www.w3.org/2000/svg" xmlns:xlink="http://www.w3.org/1999/xlink" width="500" zoomAndPan="magnify" viewBox="0 0 375 374.999991" height="500" preserveAspectRatio="xMidYMid meet" version="1.2"><defs><clipPath id="b29f8f5112"><path d="M 119.4375 129 L 182 129 L 182 192 L 119.4375 192 Z M 119.4375 129 "/></clipPath><clipPath id="edf34c11ea"><path d="M 143 176 L 172 176 L 172 218.550781 L 143 218.550781 Z M 143 176 "/></clipPath><clipPath id="aa4a48e542"><path d="M 143 68.550781 L 255.9375 68.550781 L 255.9375 166 L 143 166 Z M 143 68.550781 "/></clipPath></defs><g id="8f31be4876"><rect x="0" width="375" y="0" height="374.999991" style="fill:#ffffff;fill-opacity:1;stroke:none;"/><rect x="0" width="375" y="0" height="374.999991" style="fill:#0cb7f2;fill-opacity:1;stroke:none;"/><g clip-rule="nonzero" clip-path="url(#b29f8f5112)"><path style=" stroke:none;fill-rule:nonzero;fill:#f8f9fa;fill-opacity:1;" d="M 178.910156 176.253906 C 177.617188 165.757812 179.828125 156.550781 179.828125 156.550781 C 182.007812 150.007812 181.816406 144.847656 180.914062 141.117188 C 179.628906 135.800781 175.535156 131.710938 170.222656 130.425781 C 166.492188 129.519531 161.328125 129.328125 154.789062 131.507812 C 154.789062 131.507812 145.582031 133.71875 135.085938 132.429688 C 135.085938 132.429688 120.351562 132.0625 119.617188 147.898438 C 119.617188 147.898438 119.433594 157.65625 129.191406 162.628906 C 129.191406 162.628906 136.925781 165.945312 141.160156 170.179688 C 145.394531 174.414062 148.710938 182.148438 148.710938 182.148438 C 153.683594 191.90625 163.441406 191.722656 163.441406 191.722656 C 179.277344 190.984375 178.910156 176.253906 178.910156 176.253906 Z M 178.910156 176.253906 "/></g><path style=" stroke:none;fill-rule:nonzero;fill:#f8f9fa;fill-opacity:1;" d="M 188.636719 97.296875 C 189.21875 97.761719 189.734375 98.296875 190.179688 98.90625 C 190.628906 99.515625 191.003906 100.183594 191.300781 100.914062 C 191.597656 101.644531 191.816406 102.421875 191.949219 103.242188 C 192.085938 104.066406 192.136719 104.917969 192.105469 105.804688 C 192.074219 106.6875 191.960938 107.585938 191.761719 108.5 C 191.5625 109.410156 191.285156 110.320312 190.929688 111.222656 C 190.574219 112.128906 190.144531 113.011719 189.640625 113.875 C 189.140625 114.738281 188.574219 115.5625 187.949219 116.347656 C 187.320312 117.136719 186.644531 117.871094 185.914062 118.550781 C 185.1875 119.230469 184.421875 119.847656 183.617188 120.398438 C 182.816406 120.945312 181.992188 121.421875 181.148438 121.816406 C 180.304688 122.214844 179.453125 122.527344 178.597656 122.753906 C 177.742188 122.984375 176.898438 123.125 176.066406 123.175781 C 175.234375 123.226562 174.429688 123.1875 173.652344 123.0625 C 172.875 122.933594 172.140625 122.71875 171.445312 122.417969 C 170.753906 122.117188 170.117188 121.734375 169.535156 121.269531 C 168.953125 120.808594 168.4375 120.269531 167.988281 119.664062 C 167.539062 119.054688 167.164062 118.386719 166.867188 117.65625 C 166.570312 116.925781 166.355469 116.148438 166.21875 115.328125 C 166.082031 114.503906 166.03125 113.648438 166.0625 112.765625 C 166.09375 111.882812 166.210938 110.984375 166.40625 110.070312 C 166.605469 109.160156 166.882812 108.25 167.238281 107.347656 C 167.597656 106.441406 168.027344 105.558594 168.527344 104.695312 C 169.027344 103.832031 169.59375 103.007812 170.21875 102.222656 C 170.847656 101.433594 171.523438 100.699219 172.253906 100.019531 C 172.980469 99.335938 173.746094 98.722656 174.550781 98.171875 C 175.351562 97.621094 176.175781 97.148438 177.019531 96.753906 C 177.863281 96.355469 178.714844 96.042969 179.570312 95.816406 C 180.425781 95.585938 181.269531 95.445312 182.101562 95.394531 C 182.933594 95.34375 183.738281 95.378906 184.515625 95.507812 C 185.292969 95.636719 186.03125 95.847656 186.722656 96.152344 C 187.414062 96.453125 188.054688 96.835938 188.636719 97.296875 Z M 188.636719 97.296875 "/><path style=" stroke:none;fill-rule:nonzero;fill:#f8f9fa;fill-opacity:1;" d="M 214.464844 123.304688 C 214.898438 123.910156 215.246094 124.566406 215.507812 125.277344 C 215.769531 125.984375 215.945312 126.730469 216.03125 127.515625 C 216.113281 128.296875 216.109375 129.105469 216.011719 129.933594 C 215.914062 130.761719 215.730469 131.59375 215.457031 132.4375 C 215.179688 133.277344 214.824219 134.109375 214.378906 134.933594 C 213.9375 135.753906 213.421875 136.550781 212.828125 137.320312 C 212.238281 138.09375 211.582031 138.824219 210.859375 139.515625 C 210.140625 140.207031 209.371094 140.84375 208.550781 141.425781 C 207.730469 142.007812 206.878906 142.527344 205.988281 142.980469 C 205.101562 143.4375 204.195312 143.816406 203.273438 144.125 C 202.351562 144.429688 201.429688 144.660156 200.507812 144.808594 C 199.585938 144.957031 198.683594 145.023438 197.796875 145.003906 C 196.914062 144.988281 196.0625 144.890625 195.25 144.710938 C 194.433594 144.53125 193.671875 144.273438 192.957031 143.9375 C 192.246094 143.597656 191.597656 143.191406 191.015625 142.710938 C 190.429688 142.230469 189.925781 141.683594 189.492188 141.078125 C 189.0625 140.472656 188.714844 139.816406 188.449219 139.105469 C 188.1875 138.398438 188.011719 137.652344 187.925781 136.867188 C 187.84375 136.085938 187.847656 135.277344 187.945312 134.449219 C 188.042969 133.621094 188.226562 132.789062 188.503906 131.945312 C 188.777344 131.105469 189.136719 130.273438 189.578125 129.449219 C 190.019531 128.628906 190.535156 127.832031 191.128906 127.0625 C 191.71875 126.289062 192.375 125.558594 193.097656 124.867188 C 193.816406 124.179688 194.585938 123.539062 195.40625 122.957031 C 196.226562 122.375 197.082031 121.855469 197.96875 121.402344 C 198.855469 120.945312 199.761719 120.566406 200.683594 120.257812 C 201.605469 119.953125 202.53125 119.722656 203.449219 119.574219 C 204.371094 119.425781 205.277344 119.363281 206.160156 119.378906 C 207.046875 119.394531 207.894531 119.492188 208.710938 119.671875 C 209.523438 119.851562 210.285156 120.109375 211 120.445312 C 211.710938 120.785156 212.359375 121.191406 212.941406 121.671875 C 213.527344 122.152344 214.035156 122.699219 214.464844 123.304688 Z M 214.464844 123.304688 "/><path style=" stroke:none;fill-rule:nonzero;fill:#f8f9fa;fill-opacity:1;" d="M 213.882812 157.910156 C 214.125 158.523438 214.28125 159.164062 214.355469 159.832031 C 214.429688 160.496094 214.417969 161.175781 214.324219 161.867188 C 214.226562 162.558594 214.050781 163.25 213.789062 163.941406 C 213.527344 164.632812 213.191406 165.308594 212.773438 165.972656 C 212.355469 166.636719 211.871094 167.277344 211.3125 167.886719 C 210.757812 168.5 210.140625 169.074219 209.464844 169.609375 C 208.792969 170.144531 208.070312 170.632812 207.304688 171.070312 C 206.535156 171.507812 205.738281 171.890625 204.90625 172.21875 C 204.078125 172.542969 203.234375 172.804688 202.371094 173.003906 C 201.511719 173.203125 200.652344 173.335938 199.792969 173.402344 C 198.933594 173.46875 198.089844 173.464844 197.265625 173.394531 C 196.441406 173.324219 195.652344 173.1875 194.894531 172.984375 C 194.136719 172.78125 193.429688 172.515625 192.769531 172.183594 C 192.105469 171.855469 191.507812 171.46875 190.964844 171.027344 C 190.425781 170.582031 189.957031 170.09375 189.558594 169.554688 C 189.160156 169.015625 188.839844 168.441406 188.601562 167.824219 C 188.359375 167.210938 188.203125 166.574219 188.128906 165.90625 C 188.054688 165.242188 188.066406 164.5625 188.160156 163.871094 C 188.253906 163.179688 188.433594 162.488281 188.695312 161.796875 C 188.957031 161.105469 189.292969 160.425781 189.710938 159.761719 C 190.128906 159.097656 190.613281 158.460938 191.171875 157.851562 C 191.726562 157.238281 192.34375 156.664062 193.015625 156.128906 C 193.691406 155.59375 194.414062 155.105469 195.179688 154.667969 C 195.945312 154.226562 196.746094 153.84375 197.574219 153.519531 C 198.40625 153.195312 199.25 152.933594 200.113281 152.734375 C 200.972656 152.53125 201.832031 152.398438 202.691406 152.335938 C 203.550781 152.269531 204.394531 152.269531 205.214844 152.339844 C 206.039062 152.410156 206.832031 152.550781 207.589844 152.753906 C 208.34375 152.957031 209.054688 153.222656 209.714844 153.554688 C 210.378906 153.882812 210.976562 154.269531 211.519531 154.710938 C 212.058594 155.152344 212.527344 155.644531 212.925781 156.183594 C 213.324219 156.722656 213.640625 157.296875 213.882812 157.910156 Z M 213.882812 157.910156 "/><g clip-rule="nonzero" clip-path="url(#edf34c11ea)"><path style=" stroke:none;fill-rule:nonzero;fill:#212529;fill-opacity:1;" d="M 163.53125 193.695312 L 163.476562 193.699219 C 163.183594 193.703125 156.234375 193.769531 150.644531 188.175781 C 150.644531 188.175781 150.644531 188.175781 150.640625 188.175781 C 149.183594 186.71875 147.941406 184.992188 146.949219 183.042969 L 146.894531 182.925781 C 146.875 182.875 145.492188 179.6875 143.441406 176.398438 L 143.441406 218.457031 L 171.46875 218.457031 L 171.46875 191.863281 C 169.351562 192.859375 166.746094 193.546875 163.53125 193.695312 Z M 163.53125 193.695312 "/></g><g clip-rule="nonzero" clip-path="url(#aa4a48e542)"><path style=" stroke:none;fill-rule:nonzero;fill:#212529;fill-opacity:1;" d="M 240.375 80.433594 C 232.367188 73.054688 220.566406 68.628906 209.1875 68.628906 L 143.441406 68.628906 L 143.441406 98.121094 C 143.839844 97.808594 144.253906 97.519531 144.675781 97.253906 C 147.921875 95.214844 151.414062 94.765625 154.507812 95.976562 C 155.746094 96.460938 156.859375 97.195312 157.820312 98.15625 C 161.574219 101.914062 162.457031 108.617188 160.015625 114.84375 C 158.539062 118.613281 156.039062 121.742188 152.984375 123.664062 C 149.839844 125.636719 146.460938 126.121094 143.441406 125.046875 L 143.441406 130.835938 C 149.265625 130.683594 153.632812 129.742188 154.253906 129.605469 C 160.136719 127.660156 165.664062 127.289062 170.6875 128.507812 C 170.949219 128.570312 171.210938 128.640625 171.46875 128.71875 L 171.46875 124.554688 C 170.324219 124.160156 169.257812 123.578125 168.300781 122.816406 C 167.996094 122.570312 167.699219 122.308594 167.421875 122.027344 C 165 119.609375 163.828125 116.078125 164.121094 112.085938 C 164.402344 108.261719 166.019531 104.324219 168.675781 100.992188 C 171.488281 97.460938 175.175781 94.945312 179.058594 93.90625 C 183.160156 92.808594 186.996094 93.464844 189.867188 95.753906 C 190.171875 96 190.46875 96.261719 190.746094 96.539062 C 191.234375 97.027344 191.667969 97.5625 192.050781 98.132812 L 207.082031 98.132812 C 214.457031 98.132812 219.726562 100.027344 223.308594 103.613281 C 226.257812 106.5625 227.734375 111.199219 227.734375 116.886719 C 227.734375 122.578125 226.257812 127.210938 223.308594 130.371094 C 221.5625 132.117188 219.417969 133.460938 216.828125 134.382812 C 215.429688 137.683594 212.9375 140.714844 209.695312 143.023438 C 206.320312 145.425781 202.40625 146.824219 198.667969 146.960938 C 194.785156 147.105469 191.355469 145.894531 189.011719 143.550781 C 188.601562 143.136719 188.21875 142.691406 187.882812 142.214844 C 186.570312 140.371094 185.898438 138.195312 185.886719 135.855469 L 180.832031 135.855469 C 181.742188 137.328125 182.421875 138.945312 182.832031 140.652344 C 184.050781 145.675781 183.679688 151.207031 181.734375 157.089844 C 181.617188 157.609375 180.921875 160.832031 180.621094 165.355469 L 186.101562 165.355469 C 186.027344 163.160156 186.679688 160.886719 188.039062 158.71875 C 189.957031 155.660156 193.089844 153.164062 196.855469 151.6875 C 203.082031 149.242188 209.789062 150.125 213.546875 153.882812 C 214.507812 154.84375 215.242188 155.957031 215.726562 157.195312 C 216.679688 159.628906 216.601562 162.304688 215.539062 164.917969 C 224.855469 163.625 233.671875 159.539062 240.378906 153.347656 C 247.332031 147.023438 255.550781 135.644531 255.550781 116.890625 C 255.546875 101.503906 250.699219 89.914062 240.375 80.433594 Z M 240.375 80.433594 "/></g><path style=" stroke:none;fill-rule:nonzero;fill:#f8f9fa;fill-opacity:1;" d="M 153.789062 97.8125 C 154.402344 98.050781 154.976562 98.371094 155.515625 98.769531 C 156.054688 99.167969 156.546875 99.636719 156.988281 100.175781 C 157.429688 100.714844 157.816406 101.316406 158.148438 101.976562 C 158.476562 102.640625 158.742188 103.347656 158.945312 104.105469 C 159.152344 104.863281 159.289062 105.652344 159.359375 106.476562 C 159.429688 107.300781 159.429688 108.140625 159.363281 109 C 159.300781 109.859375 159.167969 110.71875 158.96875 111.582031 C 158.769531 112.441406 158.503906 113.289062 158.179688 114.117188 C 157.855469 114.949219 157.472656 115.746094 157.03125 116.511719 C 156.59375 117.28125 156.105469 118 155.570312 118.675781 C 155.035156 119.351562 154.460938 119.964844 153.851562 120.523438 C 153.238281 121.078125 152.601562 121.566406 151.9375 121.984375 C 151.273438 122.398438 150.59375 122.738281 149.902344 123 C 149.210938 123.261719 148.519531 123.4375 147.828125 123.535156 C 147.136719 123.628906 146.457031 123.640625 145.792969 123.566406 C 145.128906 123.492188 144.488281 123.332031 143.875 123.09375 C 143.257812 122.851562 142.683594 122.53125 142.144531 122.132812 C 141.605469 121.738281 141.117188 121.269531 140.671875 120.726562 C 140.230469 120.1875 139.84375 119.585938 139.515625 118.925781 C 139.1875 118.265625 138.917969 117.554688 138.714844 116.796875 C 138.511719 116.039062 138.375 115.25 138.304688 114.425781 C 138.234375 113.601562 138.230469 112.761719 138.296875 111.902344 C 138.363281 111.042969 138.496094 110.183594 138.695312 109.320312 C 138.894531 108.460938 139.15625 107.617188 139.480469 106.785156 C 139.808594 105.957031 140.191406 105.15625 140.628906 104.390625 C 141.066406 103.621094 141.554688 102.902344 142.089844 102.226562 C 142.625 101.550781 143.199219 100.9375 143.8125 100.378906 C 144.421875 99.824219 145.0625 99.335938 145.726562 98.921875 C 146.390625 98.503906 147.066406 98.164062 147.757812 97.902344 C 148.449219 97.644531 149.140625 97.464844 149.832031 97.371094 C 150.523438 97.273438 151.203125 97.265625 151.867188 97.339844 C 152.535156 97.414062 153.175781 97.570312 153.789062 97.8125 Z M 153.789062 97.8125 "/><g style="fill:#f8f9fa;fill-opacity:1;"><g transform="translate(11.948805, 276.878295)"><path style="stroke:none" d="M 22.328125 -42.9375 C 24.453125 -42.9375 26.441406 -42.320312 28.296875 -41.09375 C 30.160156 -39.875 31.664062 -38.21875 32.8125 -36.125 C 33.957031 -34.039062 34.53125 -31.710938 34.53125 -29.140625 C 34.53125 -26.597656 33.957031 -24.285156 32.8125 -22.203125 C 31.664062 -20.117188 30.160156 -18.453125 28.296875 -17.203125 C 26.441406 -15.953125 24.453125 -15.328125 22.328125 -15.328125 L 11.046875 -15.328125 L 11.65625 -16.4375 L 11.65625 -3.734375 C 11.65625 -2.671875 11.328125 -1.78125 10.671875 -1.0625 C 10.015625 -0.351562 9.15625 0 8.09375 0 C 7.070312 0 6.234375 -0.351562 5.578125 -1.0625 C 4.921875 -1.78125 4.59375 -2.671875 4.59375 -3.734375 L 4.59375 -39.203125 C 4.59375 -40.265625 4.953125 -41.148438 5.671875 -41.859375 C 6.390625 -42.578125 7.28125 -42.9375 8.34375 -42.9375 Z M 22.328125 -22.328125 C 23.109375 -22.328125 23.863281 -22.65625 24.59375 -23.3125 C 25.332031 -23.96875 25.945312 -24.816406 26.4375 -25.859375 C 26.925781 -26.898438 27.171875 -27.992188 27.171875 -29.140625 C 27.171875 -30.328125 26.925781 -31.429688 26.4375 -32.453125 C 25.945312 -33.472656 25.332031 -34.300781 24.59375 -34.9375 C 23.863281 -35.570312 23.109375 -35.890625 22.328125 -35.890625 L 10.921875 -35.890625 L 11.65625 -36.984375 L 11.65625 -21.34375 L 10.984375 -22.328125 Z M 22.328125 -22.328125 "/></g></g><g style="fill:#f8f9fa;fill-opacity:1;"><g transform="translate(55.375904, 276.878295)"><path style="stroke:none" d="M 20.359375 -33.3125 L 7.109375 -2.140625 C 6.828125 -1.367188 6.390625 -0.765625 5.796875 -0.328125 C 5.203125 0.0976562 4.554688 0.3125 3.859375 0.3125 C 2.753906 0.3125 1.9375 0.00390625 1.40625 -0.609375 C 0.875 -1.222656 0.609375 -1.984375 0.609375 -2.890625 C 0.609375 -3.253906 0.671875 -3.640625 0.796875 -4.046875 L 16.078125 -40.734375 C 16.398438 -41.546875 16.898438 -42.175781 17.578125 -42.625 C 18.253906 -43.082031 18.976562 -43.269531 19.75 -43.1875 C 20.488281 -43.1875 21.175781 -42.96875 21.8125 -42.53125 C 22.445312 -42.101562 22.90625 -41.503906 23.1875 -40.734375 L 38.28125 -4.78125 C 38.476562 -4.25 38.578125 -3.757812 38.578125 -3.3125 C 38.578125 -2.207031 38.21875 -1.328125 37.5 -0.671875 C 36.789062 -0.015625 36.007812 0.3125 35.15625 0.3125 C 34.414062 0.3125 33.75 0.0859375 33.15625 -0.359375 C 32.5625 -0.816406 32.101562 -1.429688 31.78125 -2.203125 L 18.59375 -32.9375 Z M 9.015625 -9.625 L 12.390625 -16.6875 L 28.953125 -16.6875 L 30.125 -9.625 Z M 9.015625 -9.625 "/></g></g><g style="fill:#f8f9fa;fill-opacity:1;"><g transform="translate(101.011138, 276.878295)"><path style="stroke:none" d="M 52.875 -43.125 C 53.820312 -43.125 54.722656 -42.765625 55.578125 -42.046875 C 56.429688 -41.335938 56.859375 -40.367188 56.859375 -39.140625 C 56.859375 -38.765625 56.800781 -38.351562 56.6875 -37.90625 L 44.59375 -2.328125 C 44.351562 -1.597656 43.914062 -1.035156 43.28125 -0.640625 C 42.644531 -0.253906 41.976562 -0.0390625 41.28125 0 C 40.582031 0 39.894531 -0.203125 39.21875 -0.609375 C 38.550781 -1.023438 38.035156 -1.617188 37.671875 -2.390625 L 28.59375 -23 L 29.140625 -22.640625 L 20.1875 -2.390625 C 19.8125 -1.617188 19.285156 -1.023438 18.609375 -0.609375 C 17.941406 -0.203125 17.257812 0 16.5625 0 C 15.90625 -0.0390625 15.25 -0.253906 14.59375 -0.640625 C 13.945312 -1.035156 13.5 -1.597656 13.25 -2.328125 L 1.171875 -37.90625 C 1.046875 -38.351562 0.984375 -38.765625 0.984375 -39.140625 C 0.984375 -40.367188 1.421875 -41.335938 2.296875 -42.046875 C 3.179688 -42.765625 4.09375 -43.125 5.03125 -43.125 C 5.8125 -43.125 6.535156 -42.914062 7.203125 -42.5 C 7.878906 -42.09375 8.34375 -41.503906 8.59375 -40.734375 L 18.34375 -11.171875 L 17 -11.21875 L 25.703125 -32.140625 C 26.023438 -32.878906 26.492188 -33.460938 27.109375 -33.890625 C 27.722656 -34.316406 28.421875 -34.507812 29.203125 -34.46875 C 29.972656 -34.507812 30.664062 -34.316406 31.28125 -33.890625 C 31.894531 -33.460938 32.347656 -32.878906 32.640625 -32.140625 L 40.609375 -12.140625 L 39.625 -11.53125 L 49.265625 -40.734375 C 49.503906 -41.503906 49.972656 -42.09375 50.671875 -42.5 C 51.367188 -42.914062 52.101562 -43.125 52.875 -43.125 Z M 52.875 -43.125 "/></g></g><g style="fill:#f8f9fa;fill-opacity:1;"><g transform="translate(165.292873, 276.878295)"><path style="stroke:none" d="M 22.328125 -42.9375 C 24.453125 -42.9375 26.441406 -42.320312 28.296875 -41.09375 C 30.160156 -39.875 31.664062 -38.21875 32.8125 -36.125 C 33.957031 -34.039062 34.53125 -31.710938 34.53125 -29.140625 C 34.53125 -26.597656 33.957031 -24.285156 32.8125 -22.203125 C 31.664062 -20.117188 30.160156 -18.453125 28.296875 -17.203125 C 26.441406 -15.953125 24.453125 -15.328125 22.328125 -15.328125 L 11.046875 -15.328125 L 11.65625 -16.4375 L 11.65625 -3.734375 C 11.65625 -2.671875 11.328125 -1.78125 10.671875 -1.0625 C 10.015625 -0.351562 9.15625 0 8.09375 0 C 7.070312 0 6.234375 -0.351562 5.578125 -1.0625 C 4.921875 -1.78125 4.59375 -2.671875 4.59375 -3.734375 L 4.59375 -39.203125 C 4.59375 -40.265625 4.953125 -41.148438 5.671875 -41.859375 C 6.390625 -42.578125 7.28125 -42.9375 8.34375 -42.9375 Z M 22.328125 -22.328125 C 23.109375 -22.328125 23.863281 -22.65625 24.59375 -23.3125 C 25.332031 -23.96875 25.945312 -24.816406 26.4375 -25.859375 C 26.925781 -26.898438 27.171875 -27.992188 27.171875 -29.140625 C 27.171875 -30.328125 26.925781 -31.429688 26.4375 -32.453125 C 25.945312 -33.472656 25.332031 -34.300781 24.59375 -34.9375 C 23.863281 -35.570312 23.109375 -35.890625 22.328125 -35.890625 L 10.921875 -35.890625 L 11.65625 -36.984375 L 11.65625 -21.34375 L 10.984375 -22.328125 Z M 22.328125 -22.328125 "/></g></g><g style="fill:#f8f9fa;fill-opacity:1;"><g transform="translate(208.719965, 276.878295)"><path style="stroke:none" d="M 8.34375 -42.9375 L 28.890625 -42.9375 C 29.953125 -42.9375 30.84375 -42.597656 31.5625 -41.921875 C 32.28125 -41.253906 32.640625 -40.390625 32.640625 -39.328125 C 32.640625 -38.296875 32.28125 -37.460938 31.5625 -36.828125 C 30.84375 -36.203125 29.953125 -35.890625 28.890625 -35.890625 L 11.71875 -35.890625 L 12.265625 -36.921875 L 12.265625 -24.96875 L 11.78125 -25.453125 L 26.125 -25.453125 C 27.195312 -25.453125 28.085938 -25.113281 28.796875 -24.4375 C 29.515625 -23.769531 29.875 -22.90625 29.875 -21.84375 C 29.875 -20.820312 29.515625 -19.992188 28.796875 -19.359375 C 28.085938 -18.722656 27.195312 -18.40625 26.125 -18.40625 L 11.96875 -18.40625 L 12.265625 -18.890625 L 12.265625 -6.5 L 11.78125 -7.046875 L 28.890625 -7.046875 C 29.953125 -7.046875 30.84375 -6.6875 31.5625 -5.96875 C 32.28125 -5.257812 32.640625 -4.4375 32.640625 -3.5 C 32.640625 -2.476562 32.28125 -1.640625 31.5625 -0.984375 C 30.84375 -0.328125 29.953125 0 28.890625 0 L 8.34375 0 C 7.28125 0 6.390625 -0.351562 5.671875 -1.0625 C 4.953125 -1.78125 4.59375 -2.671875 4.59375 -3.734375 L 4.59375 -39.203125 C 4.59375 -40.265625 4.953125 -41.148438 5.671875 -41.859375 C 6.390625 -42.578125 7.28125 -42.9375 8.34375 -42.9375 Z M 8.34375 -42.9375 "/></g></g><g style="fill:#f8f9fa;fill-opacity:1;"><g transform="translate(250.245617, 276.878295)"><path style="stroke:none" d="M 23 -42.9375 C 25.945312 -42.9375 28.566406 -42.382812 30.859375 -41.28125 C 33.148438 -40.175781 35.082031 -38.628906 36.65625 -36.640625 C 38.226562 -34.660156 39.410156 -32.375 40.203125 -29.78125 C 41.003906 -27.1875 41.40625 -24.414062 41.40625 -21.46875 C 41.40625 -17.5 40.6875 -13.890625 39.25 -10.640625 C 37.820312 -7.390625 35.75 -4.800781 33.03125 -2.875 C 30.3125 -0.957031 26.96875 0 23 0 L 8.34375 0 C 7.28125 0 6.390625 -0.351562 5.671875 -1.0625 C 4.953125 -1.78125 4.59375 -2.671875 4.59375 -3.734375 L 4.59375 -39.203125 C 4.59375 -40.265625 4.953125 -41.148438 5.671875 -41.859375 C 6.390625 -42.578125 7.28125 -42.9375 8.34375 -42.9375 Z M 22.390625 -7.046875 C 24.960938 -7.046875 27.066406 -7.710938 28.703125 -9.046875 C 30.335938 -10.378906 31.535156 -12.140625 32.296875 -14.328125 C 33.054688 -16.515625 33.4375 -18.894531 33.4375 -21.46875 C 33.4375 -23.394531 33.21875 -25.222656 32.78125 -26.953125 C 32.351562 -28.691406 31.6875 -30.226562 30.78125 -31.5625 C 29.882812 -32.894531 28.742188 -33.945312 27.359375 -34.71875 C 25.972656 -35.5 24.316406 -35.890625 22.390625 -35.890625 L 11.65625 -35.890625 L 12.265625 -36.4375 L 12.265625 -6.375 L 11.90625 -7.046875 Z M 22.390625 -7.046875 "/></g></g><g style="fill:#f8f9fa;fill-opacity:1;"><g transform="translate(300.542488, 276.878295)"><path style="stroke:none" d="M 12.265625 -3.734375 C 12.265625 -2.671875 11.875 -1.78125 11.09375 -1.0625 C 10.320312 -0.351562 9.425781 0 8.40625 0 C 7.257812 0 6.335938 -0.351562 5.640625 -1.0625 C 4.941406 -1.78125 4.59375 -2.671875 4.59375 -3.734375 L 4.59375 -39.203125 C 4.59375 -40.265625 4.960938 -41.148438 5.703125 -41.859375 C 6.441406 -42.578125 7.382812 -42.9375 8.53125 -42.9375 C 9.507812 -42.9375 10.375 -42.578125 11.125 -41.859375 C 11.882812 -41.148438 12.265625 -40.265625 12.265625 -39.203125 Z M 12.265625 -3.734375 "/></g></g><g style="fill:#f8f9fa;fill-opacity:1;"><g transform="translate(323.851023, 276.878295)"><path style="stroke:none" d="M 20.359375 -33.3125 L 7.109375 -2.140625 C 6.828125 -1.367188 6.390625 -0.765625 5.796875 -0.328125 C 5.203125 0.0976562 4.554688 0.3125 3.859375 0.3125 C 2.753906 0.3125 1.9375 0.00390625 1.40625 -0.609375 C 0.875 -1.222656 0.609375 -1.984375 0.609375 -2.890625 C 0.609375 -3.253906 0.671875 -3.640625 0.796875 -4.046875 L 16.078125 -40.734375 C 16.398438 -41.546875 16.898438 -42.175781 17.578125 -42.625 C 18.253906 -43.082031 18.976562 -43.269531 19.75 -43.1875 C 20.488281 -43.1875 21.175781 -42.96875 21.8125 -42.53125 C 22.445312 -42.101562 22.90625 -41.503906 23.1875 -40.734375 L 38.28125 -4.78125 C 38.476562 -4.25 38.578125 -3.757812 38.578125 -3.3125 C 38.578125 -2.207031 38.21875 -1.328125 37.5 -0.671875 C 36.789062 -0.015625 36.007812 0.3125 35.15625 0.3125 C 34.414062 0.3125 33.75 0.0859375 33.15625 -0.359375 C 32.5625 -0.816406 32.101562 -1.429688 31.78125 -2.203125 L 18.59375 -32.9375 Z M 9.015625 -9.625 L 12.390625 -16.6875 L 28.953125 -16.6875 L 30.125 -9.625 Z M 9.015625 -9.625 "/></g></g></g></svg>